PathFileType	4	(X/Y/Z)	Patient4_TMGait_0pt4_02_right_17.trc.trc
DataRate	CameraRate	NumFrames	NumMarkers	Units	OrigDataRate	OrigDataStartFrame	OrigNumFrames
70.707070707071	70.707070707071	4	33	mm	70.707070707071	1	       141
Frame#	Time	Sacral			L.Shoulder			Chest			R.Shoulder			Neck			R.ASIS			L.ASIS			R.Thigh.Superior			R.Thigh.Lateral			R.Thigh.Inferior			R.Patella			L.Thigh.Superior			L.Thigh.Lateral			L.Thigh.Inferior			L.Patella			L.Shank.Superior			L.Shank.Lateral			L.Shank.Inferior			R.Shank.Superior			R.Shank.Lateral			R.Shank.Inferior			R.Heel			R.Midfoot.Superior			R.Midfoot.Lateral			R.Toe			L.Heel			L.Midfoot.Lateral			L.Midfoot.Superior			L.Toe			L.Elbow			L.Wrist			R.Elbow			R.Wrist			
		X1	Y1	Z1	X2	Y2	Z2	X3	Y3	Z3	X4	Y4	Z4	X5	Y5	Z5	X6	Y6	Z6	X7	Y7	Z7	X8	Y8	Z8	X9	Y9	Z9	X10	Y10	Z10	X11	Y11	Z11	X12	Y12	Z12	X13	Y13	Z13	X14	Y14	Z14	X15	Y15	Z15	X16	Y16	Z16	X17	Y17	Z17	X18	Y18	Z18	X19	Y19	Z19	X20	Y20	Z20	X21	Y21	Z21	X22	Y22	Z22	X23	Y23	Z23	X24	Y24	Z24	X25	Y25	Z25	X26	Y26	Z26	X27	Y27	Z27	X28	Y28	Z28	X29	Y29	Z29	X30	Y30	Z30	X31	Y31	Z31	X32	Y32	Z32	X33	Y33	Z33	

1	22.010000000000	878.466350477568	1003.999189284801	411.152722465840	1059.643233912094	1427.856998772138	205.514898593368	1160.749126931725	1368.073589083808	370.675328571728	1074.852376464163	1447.290103712093	540.816675017410	1044.985515102854	1495.870260786179	358.265261681997	1109.021573655399	950.484805098375	526.168609696204	1093.242720683843	960.396889966729	252.770669421181	1191.340517674164	774.806347258348	503.727550669821	1147.884084821688	655.701838321193	582.755868599089	1239.361698498280	614.461141256651	507.961637446025	1257.339588812500	504.809170002199	533.576894556480	1150.110362148191	751.020011782304	284.792428390659	1064.557768350981	631.455642848238	231.171191765193	1152.862929249289	557.723235779852	294.599191697840	1155.151385142258	487.599516768061	306.509362045518	1124.161282023908	413.837568766781	301.273938311681	1029.862578626003	302.294444078755	252.068755432944	1073.863093941896	190.690854430935	326.643280316143	1185.787332303810	426.562083406477	541.387207262819	1066.576120004233	380.888970803893	603.298300919714	1059.098873091272	269.301908101304	557.009382667501	862.297554052179	193.004943183081	532.435485965844	1034.569102871416	145.106836475169	569.445163898627	926.133280756571	137.266609327755	605.620865637608	1108.802725645548	39.045715009275	597.101469336166	940.521367711695	38.860666091599	372.955960566635	1012.501546573425	35.484856405601	290.466493603743	1096.553754692387	96.209567875036	315.987799282617	1224.683050929855	42.880442689254	284.173410236423	1084.429523971694	1080.056169315061	76.965713826461	1231.966688534883	862.620006132260	85.941464761398	1016.728312136711	1111.673965172037	679.882862197924	1080.756799936157	858.768355192489	704.169491561981	
2	22.024142857143	877.118695653770	1005.071410056098	408.522265054205	1061.875199503902	1428.533114895291	204.281184476528	1160.548315410689	1368.551179791241	370.662891202788	1072.772563996217	1448.125113294939	539.528006700447	1045.707178231966	1496.582109170336	356.755161475024	1106.813118059088	951.636861461783	525.839046486406	1093.588019583962	961.209344330654	252.052355477920	1190.241432344528	777.374539808141	503.268166584412	1148.233269494833	658.040901471578	582.653101245424	1239.193454657759	617.174987863374	507.211175126697	1259.293328980476	509.500438957966	533.459003488431	1147.095112664498	750.536733450692	284.894323681478	1060.403911634971	631.796549535996	230.229449973097	1147.477736109618	557.193203041169	294.015765826938	1148.903066485599	487.247310141493	305.797156505019	1117.979262385289	413.826293063446	300.477669252844	1023.498960207890	302.249989399707	251.375343724694	1067.612296387929	190.728255953629	326.233774340949	1191.714523969800	429.268989905998	541.973528255797	1076.124638046004	377.101257964043	604.148861526234	1075.619507892803	265.476334990555	558.366427649004	885.072766673409	177.583357965614	533.896703081946	1058.748470380405	140.404329949106	571.483715980642	951.575805490316	126.297820268751	607.441337403303	1138.711589012735	39.594417247563	599.774253839559	934.448040164094	38.893075492978	372.945567970064	1006.439148687720	35.444299667319	290.428642702426	1090.517906056477	96.184812888961	315.864743481573	1218.652624215856	42.881286666759	284.165552171502	1091.164048633853	1081.831183981123	74.841425250877	1243.022260928369	867.619086234606	85.494528775706	1006.991520929274	1115.421215134411	680.203256042914	1065.051089774591	862.166412125287	709.755148070488	
3	22.038285714286	875.781260848831	1006.096614203411	405.950744893812	1064.101497180798	1429.126093097328	203.079787657344	1160.366908839724	1368.958044052476	370.670520366444	1070.738979440127	1448.904721961255	538.256196036181	1046.449918436807	1497.230100326535	355.267207985843	1104.610445065153	952.694668227317	525.542045912832	1093.871860200734	961.938057900978	251.377380760864	1189.003982533265	779.728226156441	502.837287537813	1148.340841143160	660.215092707466	582.576397877853	1238.740992049443	619.650022577288	506.486363027908	1260.935608613876	514.028047583927	533.343419108407	1144.083320502993	750.034487639763	284.981742037403	1056.286492546328	632.115906687848	229.301166794383	1142.150740469610	556.654029359223	293.431171163503	1142.720885795063	486.884771139685	305.090562906482	1111.859563775110	413.799900900842	299.692103298201	1017.192118394606	302.199618445937	250.696591579240	1061.399251199087	190.753989397031	325.832243529152	1197.449633544969	431.885758575651	542.593598308132	1085.674898139015	373.207164430319	605.080920836038	1092.225777453779	261.692527075630	559.803851339986	908.247097750373	162.208817335622	535.444883096615	1083.147786492502	135.861871710115	573.655103881892	977.335698132126	115.479818054059	609.388533467517	1168.777757436427	40.428263739789	602.633225937691	928.397758104717	38.923066776387	372.932604819398	1000.393468396050	35.405192058033	290.393710117252	1084.497978832570	96.157245000342	315.746964502616	1212.637232506228	42.874775590065	284.158483311847	1097.814256305772	1083.514311076833	72.779367733216	1253.945580356529	872.526417673403	85.135658373715	997.336196161482	1119.142738862954	680.495122759954	1049.612864098958	865.576822926839	715.158045449743	
4	22.052428571429	874.481495728226	1007.026924008747	403.516495708653	1066.289814458981	1429.567980916885	201.955435744192	1160.223293979042	1369.237569586936	370.718106981831	1068.813145396437	1449.583490129335	537.035865404414	1047.225850302792	1497.760621056630	353.843203474904	1102.446993467282	953.572501746189	525.308671659014	1094.050809259238	962.518495698506	250.791348685696	1187.522687773345	781.664742723305	502.478223195985	1147.995696582056	662.066348962503	582.563012310375	1237.783479782551	621.667032380625	505.841046801030	1261.985965894509	518.208577582280	533.239614085374	1141.124165740930	749.507114521057	285.051553344900	1052.275655442206	632.394113442095	228.411939406748	1136.972446530638	556.102775370938	292.860394866528	1136.707193836365	486.504488533420	304.409808098507	1105.899484370720	413.744868206770	298.940310419323	1011.034450186336	302.141019710463	250.053168719474	1055.295870512937	190.758494132671	325.450915943160	1202.758359963788	434.324316505681	543.266132632785	1095.120721476728	369.197562021382	606.148674193954	1108.786301060926	258.069529380090	561.354813366538	931.867023269551	147.157953764888	537.137173859424	1107.668434638395	131.711056202082	576.001394274643	1003.388254275369	105.101899056188	611.512081591297	1198.791112836805	41.809389805422	605.697005909319	922.423836792552	38.950201891021	372.917272379644	994.416158720947	35.369324529190	290.363923051296	1078.545123039304	96.125337472164	315.640161449769	1206.687172818552	42.855990020313	284.152946514508	1104.243554278724	1085.012855018858	70.871046478995	1264.514181387943	877.211575858173	84.950434624596	987.942440175418	1122.768114233239	680.724851459792	1034.815323531454	868.955994845475	720.170948694950	
